<?xml version="1.0" encoding="iso-8859-1"?>
<!-- Generator: Adobe Illustrator 19.0.0, SVG Export Plug-In . SVG Version: 6.00 Build 0)  -->
<svg version="1.1" id="Capa_1" xmlns="http://www.w3.org/2000/svg" xmlns:xlink="http://www.w3.org/1999/xlink" x="0px" y="0px"
	 viewBox="0 0 512.001 512.001" style="enable-background:new 0 0 512.001 512.001;" xml:space="preserve">
<path style="fill:#00C3FF;" d="M40.503,411.378C18.169,411.378,0,393.209,0,370.875V255.868c0-36.395,29.609-66.004,66.004-66.004
	c17.844,0,34.561,7.008,47.072,19.735l-32.071,46.269v115.007C81.005,393.209,62.836,411.378,40.503,411.378z"/>
<path style="fill:#F2F2F4;" d="M278.639,489.361L45.279,256l233.36-233.36L512,256L278.639,489.361z"/>
<rect x="254.478" y="32.656" transform="matrix(-0.7071 0.7071 -0.7071 -0.7071 715.035 99.1527)" style="fill:#DFDFE1;" width="165.009" height="330.018"/>
<rect x="343.188" y="63.934" transform="matrix(-0.7071 -0.7071 0.7071 -0.7071 486.7041 554.48)" style="fill:#56535A;" width="30.002" height="225.012"/>
<path style="fill:#888890;" d="M299.853,277.214c-11.698,11.698-30.731,11.698-42.429,0c-11.698-11.698-11.698-30.731,0-42.429
	c11.698-11.698,30.731-11.698,42.429,0C311.551,246.483,311.551,265.517,299.853,277.214z M278.652,255.986L278.64,256
	C278.648,255.991,278.652,255.986,278.652,255.986z"/>
<g>
</g>
<g>
</g>
<g>
</g>
<g>
</g>
<g>
</g>
<g>
</g>
<g>
</g>
<g>
</g>
<g>
</g>
<g>
</g>
<g>
</g>
<g>
</g>
<g>
</g>
<g>
</g>
<g>
</g>
</svg>
